<svg width="72" height="72" viewBox="0 0 100 100" fill="none" xmlns="http://www.w3.org/2000/svg">
<g filter="url(#filter0_diii)">
<rect x="7" y="7" width="72" height="72" rx="16" fill="#C4C4C4"/>
<rect x="7" y="7" width="72" height="72" rx="16" fill="url(#paint0_linear)"/>
<rect x="7" y="7" width="72" height="72" rx="16" fill="url(#paint1_linear)"/>
</g>
<g clip-path="url(#clip0)">
<path d="M43 23C37.6152 23 33.2344 27.3809 33.2344 32.7656C33.2344 38.1504 37.6152 42.5312 43 42.5312C48.3848 42.5312 52.7656 38.1504 52.7656 32.7656C52.7656 27.3809 48.3848 23 43 23Z" fill="white"/>
<path d="M43.1251 44.875H42.8214C41.3653 44.875 39.9278 45.082 38.5485 45.4793L43.0017 52.3654L47.4499 45.4871C46.0553 45.0846 44.6 44.875 43.1251 44.875Z" fill="white"/>
<path d="M58.4466 57.997C57.6771 52.9364 54.4345 48.5319 49.697 46.3282L44.1719 54.8719V63.0001H59.2073L58.4466 57.997Z" fill="white"/>
<path d="M36.3014 46.3203C31.54 48.5375 28.3184 52.9676 27.5537 57.997L26.793 63H41.8284V54.8669L36.3014 46.3203Z" fill="white"/>
</g>
<defs>
<filter id="filter0_diii" x="0" y="0" width="100" height="100" filterUnits="userSpaceOnUse" color-interpolation-filters="sRGB">
<feFlood flood-opacity="0" result="BackgroundImageFix"/>
<feColorMatrix in="SourceAlpha" type="matrix" values="0 0 0 0 0 0 0 0 0 0 0 0 0 0 0 0 0 0 127 0" result="hardAlpha"/>
<feOffset dx="7" dy="7"/>
<feGaussianBlur stdDeviation="7"/>
<feColorMatrix type="matrix" values="0 0 0 0 0.150937 0 0 0 0 0.358896 0 0 0 0 0.670833 0 0 0 0.25 0"/>
<feBlend mode="normal" in2="BackgroundImageFix" result="effect1_dropShadow"/>
<feBlend mode="normal" in="SourceGraphic" in2="effect1_dropShadow" result="shape"/>
<feColorMatrix in="SourceAlpha" type="matrix" values="0 0 0 0 0 0 0 0 0 0 0 0 0 0 0 0 0 0 127 0" result="hardAlpha"/>
<feOffset dy="2"/>
<feGaussianBlur stdDeviation="2"/>
<feComposite in2="hardAlpha" operator="arithmetic" k2="-1" k3="1"/>
<feColorMatrix type="matrix" values="0 0 0 0 1 0 0 0 0 1 0 0 0 0 1 0 0 0 0.54 0"/>
<feBlend mode="normal" in2="shape" result="effect2_innerShadow"/>
<feColorMatrix in="SourceAlpha" type="matrix" values="0 0 0 0 0 0 0 0 0 0 0 0 0 0 0 0 0 0 127 0" result="hardAlpha"/>
<feOffset dy="-3"/>
<feGaussianBlur stdDeviation="2"/>
<feComposite in2="hardAlpha" operator="arithmetic" k2="-1" k3="1"/>
<feColorMatrix type="matrix" values="0 0 0 0 0.0588235 0 0 0 0 0.45098 0 0 0 0 0.819608 0 0 0 0.94 0"/>
<feBlend mode="normal" in2="effect2_innerShadow" result="effect3_innerShadow"/>
<feColorMatrix in="SourceAlpha" type="matrix" values="0 0 0 0 0 0 0 0 0 0 0 0 0 0 0 0 0 0 127 0" result="hardAlpha"/>
<feOffset dy="-2"/>
<feGaussianBlur stdDeviation="1"/>
<feComposite in2="hardAlpha" operator="arithmetic" k2="-1" k3="1"/>
<feColorMatrix type="matrix" values="0 0 0 0 0.858333 0 0 0 0 0.970486 0 0 0 0 1 0 0 0 0.4 0"/>
<feBlend mode="normal" in2="effect3_innerShadow" result="effect4_innerShadow"/>
</filter>
<linearGradient id="paint0_linear" x1="7" y1="7" x2="74.152" y2="80.632" gradientUnits="userSpaceOnUse">
<stop stop-color="#E8EFF4"/>
<stop offset="1" stop-color="#E6ECF0"/>
</linearGradient>
<linearGradient id="paint1_linear" x1="75.4495" y1="79.8888" x2="19.4404" y2="2.48624" gradientUnits="userSpaceOnUse">
<stop stop-color="#0075FF"/>
<stop offset="0.579482" stop-color="#2CAEFF"/>
<stop offset="1" stop-color="#48D3FF"/>
</linearGradient>
<clipPath id="clip0">
<rect width="40" height="40" fill="white" transform="translate(23 23)"/>
</clipPath>
</defs>
</svg>
