<svg width="14" height="14" viewBox="0 0 20 22" fill="none" xmlns="http://www.w3.org/2000/svg">
<path d="M18 2H17V1C17 0.45 16.55 0 16 0C15.45 0 15 0.45 15 1V2H5V1C5 0.45 4.55 0 4 0C3.45 0 3 0.45 3 1V2H2C0.9 2 0 2.9 0 4V20C0 21.1 0.9 22 2 22H18C19.1 22 20 21.1 20 20V4C20 2.9 19.1 2 18 2ZM17 20H3C2.45 20 2 19.55 2 19V7H18V19C18 19.55 17.55 20 17 20Z" fill="#C4C4C4"/>
<path d="M18 2H17V1C17 0.45 16.55 0 16 0C15.45 0 15 0.45 15 1V2H5V1C5 0.45 4.55 0 4 0C3.45 0 3 0.45 3 1V2H2C0.9 2 0 2.9 0 4V20C0 21.1 0.9 22 2 22H18C19.1 22 20 21.1 20 20V4C20 2.9 19.1 2 18 2ZM17 20H3C2.45 20 2 19.55 2 19V7H18V19C18 19.55 17.55 20 17 20Z" fill="url(#paint0_linear)"/>
<path d="M18 2H17V1C17 0.45 16.55 0 16 0C15.45 0 15 0.45 15 1V2H5V1C5 0.45 4.55 0 4 0C3.45 0 3 0.45 3 1V2H2C0.9 2 0 2.9 0 4V20C0 21.1 0.9 22 2 22H18C19.1 22 20 21.1 20 20V4C20 2.9 19.1 2 18 2ZM17 20H3C2.45 20 2 19.55 2 19V7H18V19C18 19.55 17.55 20 17 20Z" fill="url(#paint1_linear)"/>
<defs>
<linearGradient id="paint0_linear" x1="0" y1="0" x2="20.6057" y2="20.5401" gradientUnits="userSpaceOnUse">
<stop stop-color="#E8EFF4"/>
<stop offset="1" stop-color="#E6ECF0"/>
</linearGradient>
<linearGradient id="paint1_linear" x1="0" y1="0" x2="20.5719" y2="0.548483" gradientUnits="userSpaceOnUse">
<stop stop-color="#45A1FF"/>
<stop offset="1" stop-color="#0176EE"/>
</linearGradient>
</defs>
</svg>
