<svg width="72" height="72" viewBox="0 0 100 100" fill="none" xmlns="http://www.w3.org/2000/svg">
<g filter="url(#filter0_diii)">
<rect x="7" y="7" width="72" height="72" rx="16" fill="url(#paint0_linear)"/>
</g>
<path d="M42.9999 23C31.972 23 23 31.9718 23 42.9999C23 54.028 31.972 63 42.9999 63C54.0278 63 62.9998 54.028 62.9998 42.9999C62.9998 31.9718 54.028 23 42.9999 23ZM54.4842 39.6217L41.9193 52.1867C41.385 52.7209 40.6748 53.015 39.9193 53.015C39.1639 53.015 38.4537 52.7209 37.9194 52.1867L31.5156 45.7828C30.9813 45.2486 30.6871 44.5384 30.6871 43.7829C30.6871 43.0272 30.9813 42.317 31.5156 41.7828C32.0497 41.2485 32.7598 40.9543 33.5155 40.9543C34.271 40.9543 34.9814 41.2485 35.5155 41.783L39.9191 46.1865L50.4839 35.6217C51.0182 35.0874 51.7284 34.7934 52.4838 34.7934C53.2393 34.7934 53.9495 35.0874 54.4838 35.6217C55.5869 36.7248 55.5869 38.519 54.4842 39.6217Z" fill="white"/>
<defs>
<filter id="filter0_diii" x="0" y="0" width="100" height="100" filterUnits="userSpaceOnUse" color-interpolation-filters="sRGB">
<feFlood flood-opacity="0" result="BackgroundImageFix"/>
<feColorMatrix in="SourceAlpha" type="matrix" values="0 0 0 0 0 0 0 0 0 0 0 0 0 0 0 0 0 0 127 0" result="hardAlpha"/>
<feOffset dx="7" dy="7"/>
<feGaussianBlur stdDeviation="7"/>
<feColorMatrix type="matrix" values="0 0 0 0 0.0705882 0 0 0 0 0.729412 0 0 0 0 0.176471 0 0 0 0.25 0"/>
<feBlend mode="normal" in2="BackgroundImageFix" result="effect1_dropShadow"/>
<feBlend mode="normal" in="SourceGraphic" in2="effect1_dropShadow" result="shape"/>
<feColorMatrix in="SourceAlpha" type="matrix" values="0 0 0 0 0 0 0 0 0 0 0 0 0 0 0 0 0 0 127 0" result="hardAlpha"/>
<feOffset dy="2"/>
<feGaussianBlur stdDeviation="2"/>
<feComposite in2="hardAlpha" operator="arithmetic" k2="-1" k3="1"/>
<feColorMatrix type="matrix" values="0 0 0 0 1 0 0 0 0 1 0 0 0 0 1 0 0 0 0.54 0"/>
<feBlend mode="normal" in2="shape" result="effect2_innerShadow"/>
<feColorMatrix in="SourceAlpha" type="matrix" values="0 0 0 0 0 0 0 0 0 0 0 0 0 0 0 0 0 0 127 0" result="hardAlpha"/>
<feOffset dy="-3"/>
<feGaussianBlur stdDeviation="2"/>
<feComposite in2="hardAlpha" operator="arithmetic" k2="-1" k3="1"/>
<feColorMatrix type="matrix" values="0 0 0 0 0.0705882 0 0 0 0 0.729412 0 0 0 0 0.176471 0 0 0 0.94 0"/>
<feBlend mode="normal" in2="effect2_innerShadow" result="effect3_innerShadow"/>
<feColorMatrix in="SourceAlpha" type="matrix" values="0 0 0 0 0 0 0 0 0 0 0 0 0 0 0 0 0 0 127 0" result="hardAlpha"/>
<feOffset dy="-2"/>
<feGaussianBlur stdDeviation="1"/>
<feComposite in2="hardAlpha" operator="arithmetic" k2="-1" k3="1"/>
<feColorMatrix type="matrix" values="0 0 0 0 0.372549 0 0 0 0 0.94902 0 0 0 0 0.470588 0 0 0 0.4 0"/>
<feBlend mode="normal" in2="effect3_innerShadow" result="effect4_innerShadow"/>
</filter>
<linearGradient id="paint0_linear" x1="75.4495" y1="79.8888" x2="19.4404" y2="2.48624" gradientUnits="userSpaceOnUse">
<stop stop-color="#12BA2D"/>
<stop offset="1" stop-color="#5FF278"/>
</linearGradient>
</defs>
</svg>
