<svg width="72" height="72" viewBox="0 0 100 100" fill="none" xmlns="http://www.w3.org/2000/svg">
<g filter="url(#filter0_diii)">
<rect x="7" y="7" width="72" height="72" rx="16" fill="#C4C4C4"/>
<rect x="7" y="7" width="72" height="72" rx="16" fill="url(#paint0_linear)"/>
<rect x="7" y="7" width="72" height="72" rx="16" fill="url(#paint1_linear)"/>
</g>
<g clip-path="url(#clip0)">
<path d="M43 33C37.485 33 33 37.485 33 43C33 48.515 37.485 53 43 53C48.515 53 53 48.515 53 43C53 37.485 48.515 33 43 33ZM47.6667 47.3333C47.1133 48.0717 46.0683 48.2183 45.335 47.6667L42.0017 44.75C41.5817 44.4367 41.335 43.9417 41.335 43.4167V38C41.335 37.08 42.08 36.3333 43.0017 36.3333C43.9233 36.3333 44.6683 37.08 44.6683 38V42.5833L47.335 45C48.07 45.5517 48.22 46.5967 47.6667 47.3333Z" fill="white"/>
<path d="M25.5 43.0006C25.5 33.3523 33.35 25.5006 43 25.5006C46.465 25.5006 49.7583 26.5123 52.5533 28.3456L50.0333 30.8673C49.2467 31.6506 49.8017 33.0006 50.9167 33.0006H58.4167C59.1067 33.0006 59.6667 32.4406 59.6667 31.7506V24.2506C59.6667 23.1423 58.3233 22.5773 57.5333 23.3673L54.3433 26.5573C51.0583 24.2756 47.14 23.0006 43 23.0006C31.9717 23.0006 23 31.9723 23 43.0006C23 44.9556 23.2883 46.899 23.855 48.7773C24.0533 49.4356 24.745 49.8123 25.4133 49.614C26.0733 49.414 26.4483 48.7173 26.2483 48.0556C25.7517 46.4106 25.5 44.7106 25.5 43.0006Z" fill="white"/>
<path d="M62.1447 37.2231C61.9447 36.5614 61.2531 36.1848 60.5864 36.3864C59.9264 36.5864 59.5514 37.2831 59.7514 37.9448C60.2481 39.5898 60.4997 41.2898 60.4997 42.9998C60.4997 52.6481 52.6497 60.4998 42.9997 60.4998C39.5414 60.4998 36.2531 59.4931 33.4631 57.6665L35.9714 55.1298C36.7514 54.3398 36.1914 52.9998 35.0831 52.9998H27.5831C27.2497 52.9998 26.9281 53.1331 26.6947 53.3715C26.4614 53.6098 26.3297 53.9298 26.3331 54.2631L26.4164 61.7632C26.4264 62.8732 27.7814 63.4132 28.5547 62.6282L31.6847 59.4632C34.9631 61.7332 38.8714 62.9998 42.9997 62.9998C54.0281 62.9998 62.9997 54.0281 62.9997 42.9998C62.9997 41.0448 62.7114 39.1014 62.1447 37.2231Z" fill="white"/>
</g>
<defs>
<filter id="filter0_diii" x="0" y="0" width="100" height="100" filterUnits="userSpaceOnUse" color-interpolation-filters="sRGB">
<feFlood flood-opacity="0" result="BackgroundImageFix"/>
<feColorMatrix in="SourceAlpha" type="matrix" values="0 0 0 0 0 0 0 0 0 0 0 0 0 0 0 0 0 0 127 0" result="hardAlpha"/>
<feOffset dx="7" dy="7"/>
<feGaussianBlur stdDeviation="7"/>
<feColorMatrix type="matrix" values="0 0 0 0 0.384314 0 0 0 0 0.388235 0 0 0 0 0.835294 0 0 0 0.25 0"/>
<feBlend mode="normal" in2="BackgroundImageFix" result="effect1_dropShadow"/>
<feBlend mode="normal" in="SourceGraphic" in2="effect1_dropShadow" result="shape"/>
<feColorMatrix in="SourceAlpha" type="matrix" values="0 0 0 0 0 0 0 0 0 0 0 0 0 0 0 0 0 0 127 0" result="hardAlpha"/>
<feOffset dy="2"/>
<feGaussianBlur stdDeviation="2"/>
<feComposite in2="hardAlpha" operator="arithmetic" k2="-1" k3="1"/>
<feColorMatrix type="matrix" values="0 0 0 0 1 0 0 0 0 1 0 0 0 0 1 0 0 0 0.54 0"/>
<feBlend mode="normal" in2="shape" result="effect2_innerShadow"/>
<feColorMatrix in="SourceAlpha" type="matrix" values="0 0 0 0 0 0 0 0 0 0 0 0 0 0 0 0 0 0 127 0" result="hardAlpha"/>
<feOffset dy="-3"/>
<feGaussianBlur stdDeviation="2"/>
<feComposite in2="hardAlpha" operator="arithmetic" k2="-1" k3="1"/>
<feColorMatrix type="matrix" values="0 0 0 0 0.384314 0 0 0 0 0.388235 0 0 0 0 0.835294 0 0 0 0.94 0"/>
<feBlend mode="normal" in2="effect2_innerShadow" result="effect3_innerShadow"/>
<feColorMatrix in="SourceAlpha" type="matrix" values="0 0 0 0 0 0 0 0 0 0 0 0 0 0 0 0 0 0 127 0" result="hardAlpha"/>
<feOffset dy="-2"/>
<feGaussianBlur stdDeviation="1"/>
<feComposite in2="hardAlpha" operator="arithmetic" k2="-1" k3="1"/>
<feColorMatrix type="matrix" values="0 0 0 0 0.704167 0 0 0 0 0.706739 0 0 0 0 1 0 0 0 0.4 0"/>
<feBlend mode="normal" in2="effect3_innerShadow" result="effect4_innerShadow"/>
</filter>
<linearGradient id="paint0_linear" x1="7" y1="7" x2="74.152" y2="80.632" gradientUnits="userSpaceOnUse">
<stop stop-color="#E8EFF4"/>
<stop offset="1" stop-color="#E6ECF0"/>
</linearGradient>
<linearGradient id="paint1_linear" x1="75.4495" y1="79.8888" x2="19.4404" y2="2.48624" gradientUnits="userSpaceOnUse">
<stop stop-color="#6263D5"/>
<stop offset="1" stop-color="#B4B4FF"/>
</linearGradient>
<clipPath id="clip0">
<rect width="40" height="40" fill="white" transform="translate(23 23)"/>
</clipPath>
</defs>
</svg>

