<svg width="14" height="14" viewBox="0 0 24 24" fill="none" xmlns="http://www.w3.org/2000/svg">
<path fill-rule="evenodd" clip-rule="evenodd" d="M3.49988 10.3291C3.49988 5.76062 7.34376 2.06808 11.9933 2.06808C16.656 2.06808 20.4999 5.76062 20.4999 10.3291C20.4999 12.6312 19.6569 14.7685 18.2694 16.58C16.7387 18.5782 14.852 20.3192 12.7284 21.6858C12.2424 22.0016 11.8038 22.0254 11.2703 21.6858C9.13461 20.3192 7.24797 18.5782 5.73038 16.58C4.34186 14.7685 3.49988 12.6312 3.49988 10.3291ZM9.19519 10.5869C9.19519 12.1173 10.4526 13.321 11.9944 13.321C13.5372 13.321 14.8067 12.1173 14.8067 10.5869C14.8067 9.06835 13.5372 7.80605 11.9944 7.80605C10.4526 7.80605 9.19519 9.06835 9.19519 10.5869Z" fill="#C4C4C4"/>
<path fill-rule="evenodd" clip-rule="evenodd" d="M3.49988 10.3291C3.49988 5.76062 7.34376 2.06808 11.9933 2.06808C16.656 2.06808 20.4999 5.76062 20.4999 10.3291C20.4999 12.6312 19.6569 14.7685 18.2694 16.58C16.7387 18.5782 14.852 20.3192 12.7284 21.6858C12.2424 22.0016 11.8038 22.0254 11.2703 21.6858C9.13461 20.3192 7.24797 18.5782 5.73038 16.58C4.34186 14.7685 3.49988 12.6312 3.49988 10.3291ZM9.19519 10.5869C9.19519 12.1173 10.4526 13.321 11.9944 13.321C13.5372 13.321 14.8067 12.1173 14.8067 10.5869C14.8067 9.06835 13.5372 7.80605 11.9944 7.80605C10.4526 7.80605 9.19519 9.06835 9.19519 10.5869Z" fill="url(#paint0_linear)"/>
<path fill-rule="evenodd" clip-rule="evenodd" d="M3.49988 10.3291C3.49988 5.76062 7.34376 2.06808 11.9933 2.06808C16.656 2.06808 20.4999 5.76062 20.4999 10.3291C20.4999 12.6312 19.6569 14.7685 18.2694 16.58C16.7387 18.5782 14.852 20.3192 12.7284 21.6858C12.2424 22.0016 11.8038 22.0254 11.2703 21.6858C9.13461 20.3192 7.24797 18.5782 5.73038 16.58C4.34186 14.7685 3.49988 12.6312 3.49988 10.3291ZM9.19519 10.5869C9.19519 12.1173 10.4526 13.321 11.9944 13.321C13.5372 13.321 14.8067 12.1173 14.8067 10.5869C14.8067 9.06835 13.5372 7.80605 11.9944 7.80605C10.4526 7.80605 9.19519 9.06835 9.19519 10.5869Z" fill="url(#paint1_linear)"/>
<defs>
<linearGradient id="paint0_linear" x1="3.49988" y1="2.06808" x2="22.0671" y2="19.492" gradientUnits="userSpaceOnUse">
<stop stop-color="#E8EFF4"/>
<stop offset="1" stop-color="#E6ECF0"/>
</linearGradient>
<linearGradient id="paint1_linear" x1="3.49988" y1="2.06808" x2="20.9874" y2="2.50702" gradientUnits="userSpaceOnUse">
<stop stop-color="#45A1FF"/>
<stop offset="1" stop-color="#0176EE"/>
</linearGradient>
</defs>
</svg>
