<svg width="40" height="40" viewBox="0 0 40 40" fill="none" xmlns="http://www.w3.org/2000/svg">
<g clip-path="url(#clip0)">
<path d="M20 0C14.6152 0 10.2344 4.38086 10.2344 9.76562C10.2344 15.1504 14.6152 19.5312 20 19.5312C25.3848 19.5312 29.7656 15.1504 29.7656 9.76562C29.7656 4.38086 25.3848 0 20 0Z" fill="white"/>
<path d="M20.1251 21.875H19.8214C18.3653 21.875 16.9278 22.082 15.5485 22.4793L20.0017 29.3654L24.4499 22.4871C23.0553 22.0846 21.6 21.875 20.1251 21.875Z" fill="white"/>
<path d="M35.4466 34.997C34.6771 29.9364 31.4345 25.5319 26.697 23.3282L21.1719 31.8719V40.0001H36.2073L35.4466 34.997Z" fill="white"/>
<path d="M13.3014 23.3203C8.54 25.5375 5.31836 29.9676 4.55367 34.997L3.79297 40H18.8284V31.8669L13.3014 23.3203Z" fill="white"/>
</g>
<defs>
<clipPath id="clip0">
<rect width="40" height="40" fill="white"/>
</clipPath>
</defs>
</svg>
