<svg width="30" height="40" viewBox="0 0 40 40" fill="none" xmlns="http://www.w3.org/2000/svg">
<path d="M28.3334 0C24.6574 0 21.6667 2.9907 21.6667 6.66664C21.6667 10.3426 24.6574 13.3333 28.3334 13.3333C32.0093 13.3333 35 10.3426 35 6.66664C35 2.9907 32.0093 0 28.3334 0ZM29.7559 8.08922C29.5932 8.25195 29.3799 8.33336 29.1667 8.33336C28.9535 8.33336 28.7403 8.25195 28.5774 8.08922L27.7441 7.25586C27.5878 7.09961 27.4999 6.88805 27.4999 6.66664V4.16664C27.4999 3.70602 27.8727 3.33328 28.3333 3.33328C28.7939 3.33328 29.1667 3.70602 29.1667 4.16664V6.32156L29.7559 6.91078C30.0814 7.23633 30.0814 7.76367 29.7559 8.08922Z" fill="white"/>
<path d="M21.0083 21.6666H16.6666C15.7479 21.6666 15 20.9187 15 20V13.3334C15 11.4949 13.5051 10 11.6666 10C9.8282 10 8.33328 11.4949 8.33328 13.3334V22.5C8.33328 24.1329 9.01203 25.6067 10.0971 26.6666H8.33328C7.41453 26.6666 6.66664 25.9187 6.66664 25V10.8334C6.66664 10.3727 6.29391 10 5.83328 10C5.37273 10 5 10.3727 5 10.8334V25C5 26.8384 6.49492 28.3334 8.33336 28.3334H10V38.3334H7.5C7.03938 38.3334 6.66664 38.7061 6.66664 39.1667C6.66664 39.6273 7.03938 40 7.5 40H14.1666C14.6273 40 15 39.6273 15 39.1666C15 38.706 14.6273 38.3333 14.1666 38.3333H11.6666V28.3333H18.3333V37.408C18.3333 38.837 19.4962 39.9999 20.9252 39.9999C22.2477 39.9999 23.3561 39.0087 23.5009 37.7066L24.9755 26.1002C24.9918 25.9529 25 25.8055 25 25.6583C25 23.457 23.2096 21.6666 21.0083 21.6666Z" fill="white"/>
<path d="M12.4999 8.33328C14.8011 8.33328 16.6665 6.46781 16.6665 4.16664C16.6665 1.86547 14.8011 0 12.4999 0C10.1987 0 8.33325 1.86547 8.33325 4.16664C8.33325 6.46781 10.1987 8.33328 12.4999 8.33328Z" fill="white"/>
</svg>
