<svg width="72" height="72" viewBox="0 0 101 101" fill="none" xmlns="http://www.w3.org/2000/svg">
<g filter="url(#filter0_diii)">
<rect x="7" y="8" width="72" height="72" rx="16" fill="url(#paint0_linear)"/>
</g>
<path d="M51.3334 24C47.6574 24 44.6667 26.9907 44.6667 30.6666C44.6667 34.3426 47.6574 37.3333 51.3334 37.3333C55.0093 37.3333 58 34.3426 58 30.6666C58 26.9907 55.0093 24 51.3334 24ZM52.7559 32.0892C52.5932 32.252 52.3799 32.3334 52.1667 32.3334C51.9535 32.3334 51.7403 32.252 51.5774 32.0892L50.7441 31.2559C50.5878 31.0996 50.4999 30.888 50.4999 30.6666V28.1666C50.4999 27.706 50.8727 27.3333 51.3333 27.3333C51.7939 27.3333 52.1667 27.706 52.1667 28.1666V30.3216L52.7559 30.9108C53.0814 31.2363 53.0814 31.7637 52.7559 32.0892Z" fill="white"/>
<path d="M44.0083 45.6666H39.6666C38.7479 45.6666 38 44.9187 38 44V37.3334C38 35.4949 36.5051 34 34.6666 34C32.8282 34 31.3333 35.4949 31.3333 37.3334V46.5C31.3333 48.1329 32.012 49.6067 33.0971 50.6666H31.3333C30.4145 50.6666 29.6666 49.9187 29.6666 49V34.8334C29.6666 34.3727 29.2939 34 28.8333 34C28.3727 34 28 34.3727 28 34.8334V49C28 50.8384 29.4949 52.3334 31.3334 52.3334H33V62.3334H30.5C30.0394 62.3334 29.6666 62.7061 29.6666 63.1667C29.6666 63.6273 30.0394 64 30.5 64H37.1666C37.6273 64 38 63.6273 38 63.1666C38 62.706 37.6273 62.3333 37.1666 62.3333H34.6666V52.3333H41.3333V61.408C41.3333 62.837 42.4962 63.9999 43.9252 63.9999C45.2477 63.9999 46.3561 63.0087 46.5009 61.7066L47.9755 50.1002C47.9918 49.9529 48 49.8055 48 49.6583C48 47.457 46.2096 45.6666 44.0083 45.6666Z" fill="white"/>
<path d="M35.5 32.3333C37.8012 32.3333 39.6667 30.4678 39.6667 28.1666C39.6667 25.8655 37.8012 24 35.5 24C33.1988 24 31.3334 25.8655 31.3334 28.1666C31.3334 30.4678 33.1988 32.3333 35.5 32.3333Z" fill="white"/>
<defs>
<filter id="filter0_diii" x="0.606749" y="0.807593" width="99.5709" height="99.5709" filterUnits="userSpaceOnUse" color-interpolation-filters="sRGB">
<feFlood flood-opacity="0" result="BackgroundImageFix"/>
<feColorMatrix in="SourceAlpha" type="matrix" values="0 0 0 0 0 0 0 0 0 0 0 0 0 0 0 0 0 0 127 0" result="hardAlpha"/>
<feOffset dx="7.3922" dy="6.59304"/>
<feGaussianBlur stdDeviation="6.89272"/>
<feColorMatrix type="matrix" values="0 0 0 0 1 0 0 0 0 0.352941 0 0 0 0 0.352941 0 0 0 0.25 0"/>
<feBlend mode="normal" in2="BackgroundImageFix" result="effect1_dropShadow"/>
<feBlend mode="normal" in="SourceGraphic" in2="effect1_dropShadow" result="shape"/>
<feColorMatrix in="SourceAlpha" type="matrix" values="0 0 0 0 0 0 0 0 0 0 0 0 0 0 0 0 0 0 127 0" result="hardAlpha"/>
<feOffset dy="2.25213"/>
<feGaussianBlur stdDeviation="2.07889"/>
<feComposite in2="hardAlpha" operator="arithmetic" k2="-1" k3="1"/>
<feColorMatrix type="matrix" values="0 0 0 0 1 0 0 0 0 1 0 0 0 0 1 0 0 0 0.54 0"/>
<feBlend mode="normal" in2="shape" result="effect2_innerShadow"/>
<feColorMatrix in="SourceAlpha" type="matrix" values="0 0 0 0 0 0 0 0 0 0 0 0 0 0 0 0 0 0 127 0" result="hardAlpha"/>
<feOffset dy="-3.03172"/>
<feGaussianBlur stdDeviation="2.07889"/>
<feComposite in2="hardAlpha" operator="arithmetic" k2="-1" k3="1"/>
<feColorMatrix type="matrix" values="0 0 0 0 1 0 0 0 0 0.352941 0 0 0 0 0.352941 0 0 0 0.94 0"/>
<feBlend mode="normal" in2="effect2_innerShadow" result="effect3_innerShadow"/>
<feColorMatrix in="SourceAlpha" type="matrix" values="0 0 0 0 0 0 0 0 0 0 0 0 0 0 0 0 0 0 127 0" result="hardAlpha"/>
<feOffset dy="-1.50754"/>
<feGaussianBlur stdDeviation="1.20603"/>
<feComposite in2="hardAlpha" operator="arithmetic" k2="-1" k3="1"/>
<feColorMatrix type="matrix" values="0 0 0 0 1 0 0 0 0 0.352941 0 0 0 0 0.352941 0 0 0 0.4 0"/>
<feBlend mode="normal" in2="effect3_innerShadow" result="effect4_innerShadow"/>
</filter>
<linearGradient id="paint0_linear" x1="75.4495" y1="80.8888" x2="19.4404" y2="3.48624" gradientUnits="userSpaceOnUse">
<stop stop-color="#EF1313"/>
<stop offset="1" stop-color="#FF7D7D"/>
</linearGradient>
</defs>
</svg>
